HIERARCHY
ROOT Hips
{
    OFFSET 0.0 0.0 0.0
    CHANNELS 6 Xposition Yposition Zposition Zrotation Xrotation Yrotation
    JOINT LeftHipJoint
    {
        OFFSET 0.1 0.0 0.0
        CHANNELS 3 Zrotation Xrotation Yrotation
        JOINT LeftUpLeg
        {
            OFFSET 121.45955654434009 0.0 0.0
            CHANNELS 3 Zrotation Xrotation Yrotation
            JOINT LeftLeg
            {
                OFFSET 0.0 0.0 -414.29220084033466
                CHANNELS 3 Zrotation Xrotation Yrotation
                JOINT LeftFoot
                {
                    OFFSET 0.0 0.0 -397.4967874105822
                    CHANNELS 3 Zrotation Xrotation Yrotation
                    End Site
                    {
                        OFFSET 0.0 -0.1 0.0
                    }
                }
            }
        }
    }
    JOINT LowerBack
    {
        OFFSET 0.0 0.0 0.1
        CHANNELS 3 Zrotation Xrotation Yrotation
        JOINT Spine
        {
            OFFSET 0.0 0.0 218.69418659614192
            CHANNELS 3 Zrotation Xrotation Yrotation
            JOINT Spine1
            {
                OFFSET 0.0 0.0 249.33742563693744
                CHANNELS 3 Zrotation Xrotation Yrotation
                JOINT LeftShoulder
                {
                    OFFSET 0.1 0.0 0.0
                    CHANNELS 3 Zrotation Xrotation Yrotation
                    JOINT LeftArm
                    {
                        OFFSET 139.7979061404471 0.0 0.0
                        CHANNELS 3 Zrotation Xrotation Yrotation
                        JOINT LeftForeArm
                        {
                            OFFSET 257.10866840908795 0.0 0.0
                            CHANNELS 3 Zrotation Xrotation Yrotation
                            JOINT LeftHand
                            {
                                OFFSET 245.42563068178583 0.0 0.0
                                CHANNELS 3 Zrotation Xrotation Yrotation
                                End Site
                                {
                                    OFFSET 0.1 0.0 0.0
                                }
                            }
                        }
                    }
                }
                JOINT Neck
                {
                    OFFSET 0.0 0.0 0.1
                    CHANNELS 3 Zrotation Xrotation Yrotation
                    JOINT Neck1
                    {
                        OFFSET 0.0 0.0 105.94723062795212
                        CHANNELS 3 Zrotation Xrotation Yrotation
                        End Site
                        {
                            OFFSET 0.0 0.0 118.09054366262473
                        }
                    }
                }
                JOINT RightShoulder
                {
                    OFFSET -0.1 0.0 0.0
                    CHANNELS 3 Zrotation Xrotation Yrotation
                    JOINT RightArm
                    {
                        OFFSET -139.7979061404471 0.0 0.0
                        CHANNELS 3 Zrotation Xrotation Yrotation
                        JOINT RightForeArm
                        {
                            OFFSET -257.10866840908795 0.0 0.0
                            CHANNELS 3 Zrotation Xrotation Yrotation
                            JOINT RightHand
                            {
                                OFFSET -245.42563068178583 0.0 0.0
                                CHANNELS 3 Zrotation Xrotation Yrotation
                                End Site
                                {
                                    OFFSET -0.1 0.0 0.0
                                }
                            }
                        }
                    }
                }
            }
        }
    }
    JOINT RightHipJoint
    {
        OFFSET -0.1 0.0 0.0
        CHANNELS 3 Zrotation Xrotation Yrotation
        JOINT RightUpLeg
        {
            OFFSET -121.45955654434009 0.0 0.0
            CHANNELS 3 Zrotation Xrotation Yrotation
            JOINT RightLeg
            {
                OFFSET 0.0 0.0 -414.29220084033466
                CHANNELS 3 Zrotation Xrotation Yrotation
                JOINT RightFoot
                {
                    OFFSET 0.0 0.0 -397.4967874105822
                    CHANNELS 3 Zrotation Xrotation Yrotation
                    End Site
                    {
                        OFFSET 0.0 -0.1 0.0
                    }
                }
            }
        }
    }
}
MOTION
Frames: 6
Frame Time: 0.03333333333333333
0.0 0.0 801.6174607873196 24.879869929755856 3.8483662284882425 4.405686265029053 0.0 0.0 -3.975693351829396e-16 -0.774746401034441 -19.093204273736394 -0.6714156427314908 0.7597794302948645 24.077710652115996 0.3488455105795345 0.0 0.0 -3.975693351829396e-16 0.0 0.0 -3.975693351829396e-16 0.05439665683229985 1.3888019375049128 -0.8264518003957741 2.285732552477567 -4.133496505039402e-16 -7.870507911293233e-16 0.0 0.0 -3.975693351829396e-16 -18.03808987360351 14.534220612882086 79.23805048206404 -24.512781977927787 -5.150634129348991e-15 4.718319782206944e-15 0.0 0.0 2.603613243883587e-15 0.0 0.0 -3.975693351829396e-16 -4.063705561195261 1.2600346717445103 -4.717481286723017 0.0 0.0 -3.975693351829396e-16 12.93510028569243 10.046782974499541 -75.74653459113142 44.673131605166226 0.0 0.0 0.0 0.0 -3.1805546814635168e-15 0.0 0.0 -3.975693351829396e-16 -0.6387349744973626 -15.847146457753963 -4.049854421821878 -0.7667151068218808 24.060627989167934 0.6248120183168344 0.0 1.5902773407317584e-15 0.0
0.0 0.0 801.6174607873196 24.881201580798322 3.8326589364803767 4.491317117880912 -3.1805546814635168e-15 1.987846675914698e-16 1.987846675914698e-16 -0.7897876692265084 -19.20073627932637 -0.7259419728497141 0.7619526014927697 24.416592968058804 0.28142511653161867 0.0 0.0 -3.975693351829396e-16 -3.1805546814635168e-15 1.987846675914698e-16 1.987846675914698e-16 0.056926286078404754 1.4345287852740294 -0.9029163163554961 2.1598709679734713 1.8037304517994597e-15 7.612784194945219e-16 3.4483642953516864e-34 1.987846675914698e-16 -1.987846675914698e-16 -18.185766814100813 14.392058865318722 79.30733809203666 -24.122459744998253 1.2107398871163159e-15 3.3890047217537615e-16 -1.242404172446685e-17 -8.075627120903461e-16 1.7727554535598655e-15 3.4483642953516864e-34 1.987846675914698e-16 -1.987846675914698e-16 -3.8719036860675335 1.228419641246999 -4.697404038219897 3.4483642953516864e-34 1.987846675914698e-16 -1.987846675914698e-16 12.740030540011015 10.144663608906551 -75.46457762046784 45.413603818689744 0.0 0.0 0.0 6.3611093629270335e-15 0.0 -3.1805546814635168e-15 1.987846675914698e-16 1.987846675914698e-16 -0.6453531171065784 -15.807967273285428 -4.0890107258280715 -0.7694101872741006 24.023668484839078 0.541074206138834 3.4483642953516864e-34 9.93923337957349e-17 -3.975693351829396e-16
0.0 0.0 801.6174607873196 24.92670949929561 3.8197554581406994 4.523625102958748 6.896728590703373e-34 -3.975693351829396e-16 1.987846675914698e-16 -0.7984187937052737 -19.255887680062454 -0.6973976383976377 0.7930137057820684 24.674990555878473 0.15081590762055508 0.0 0.0 -5.963540027744094e-16 6.896728590703373e-34 -3.975693351829396e-16 1.987846675914698e-16 0.055677654099857254 1.392489826803289 -0.8661955755715983 2.121494833803758 3.679996663547989e-18 1.987506017450197e-16 0.0 0.0 1.987846675914698e-16 -18.23505256047619 14.509307128851638 79.28433278824885 -24.066010384668882 2.5066900220287216e-15 -3.2972677395851807e-15 -1.2424041724466862e-17 1.7494387221046885e-34 -1.6135724189651337e-15 0.0 0.0 1.987846675914698e-16 -3.8188239612646013 1.1863631454383843 -4.6699413984255775 0.0 0.0 1.987846675914698e-16 12.419572230039774 10.133886024764095 -75.01320456470326 46.24882049437842 -6.2768401424133034e-15 9.597309148387496e-15 0.0 0.0 -3.1805546814635168e-15 6.896728590703373e-34 -3.975693351829396e-16 1.987846675914698e-16 -0.6498699275504933 -15.802403432019307 -4.068877401288488 -0.7560866580357584 24.12635495713992 0.4205265051582947 0.0 0.0 3.975693351829396e-16
0.0 0.0 801.6174607873196 24.91938325992111 3.792873244095333 4.599579867774895 0.0 0.0 0.0 -0.8171015166488075 -19.339743083617222 -0.7109813815464553 0.8155309284149282 24.87963776199259 0.021403100264830437 0.0 0.0 -3.975693351829396e-16 0.0 0.0 0.0 0.053591386328866064 1.3160400162038182 -0.8849793111898955 2.0903826767941145 1.3876351201055542e-15 -2.2413383707553126e-16 0.0 0.0 1.987846675914698e-16 -18.35079484128795 14.806052887923734 79.36823501762846 -24.067607513310183 1.2138873942312375e-15 -8.733507549495735e-15 1.2424041724466862e-17 -3.288405990635666e-34 -3.033019185985473e-15 0.0 0.0 1.987846675914698e-16 -3.8684947233220623 1.1437579634107178 -4.770741584970714 0.0 0.0 1.987846675914698e-16 12.184192885851978 10.2275393684371 -74.63896410427247 47.42845367700458 -1.5131692192745335e-14 -1.0722567144322881e-14 0.0 0.0 2.3854160110976376e-15 0.0 0.0 0.0 -0.6588197789033645 -15.735526437426628 -4.157737005356853 -0.7783654454529665 24.174971666378028 0.4369176630603096 0.0 0.0 0.0
0.0 0.0 801.6174607873196 24.960621682421426 3.938502274481767 4.7068281328979715 3.1805546814635164e-15 3.9756933518293955e-16 -2.9817700138720465e-16 -0.8603140015426284 -19.588582219559562 -0.8663413407043568 0.7927526742771482 24.982922306984783 0.05930585906022471 0.0 0.0 -3.9756933518293955e-16 3.1805546814635164e-15 3.9756933518293955e-16 -2.9817700138720465e-16 0.05022978591884216 1.1881161243032694 -0.9546033212665836 2.0298252529045397 -6.138654529904309e-16 -9.83204406004261e-16 0.0 0.0 1.987846675914698e-16 -18.30691417438766 14.801299097288265 79.37791937445456 -24.14499585396222 -1.1230367523989769e-15 -3.422010252709994e-15 3.975693351829396e-16 -1.371263614323444e-33 -3.9523982735960206e-16 0.0 0.0 1.987846675914698e-16 -3.9841318108347608 1.153374338159986 -4.7816074488413545 0.0 0.0 1.987846675914698e-16 12.152845868918371 10.147584402126174 -74.1043384376661 48.75953935677617 -5.023379475183989e-15 1.973622836312094e-14 0.0 0.0 -1.987846675914698e-15 3.1805546814635164e-15 3.9756933518293955e-16 -2.9817700138720465e-16 -0.6880548900728022 -15.82751046370805 -4.31030186847339 -0.8038196960520935 24.147906213100224 0.4322388763956321 0.0 0.0 0.0
0.0 0.0 801.6174607873196 25.10366320638014 3.591010312997963 4.778687994751434 0.0 0.0 3.975693351829396e-16 -0.8634474408308402 -19.232607455580865 -0.8846579679599573 0.8185807839852202 25.216268991488 -0.05048691338019841 0.0 0.0 -3.975693351829396e-16 0.0 0.0 3.975693351829396e-16 0.04954173720018841 1.1446630577471395 -1.0176433135349519 1.9718015742271509 -1.2045027024008822e-15 -6.751211678358115e-16 0.0 0.0 1.987846675914698e-16 -18.896058775440967 15.086623598210565 79.50865274563293 -24.282305941611437 5.330436164053589e-15 -2.6195146031385542e-14 -3.975693351829396e-16 -5.2156509967194254e-33 1.5033090486604903e-15 0.0 0.0 1.987846675914698e-16 -4.117283095782502 1.2638300852338187 -4.8436779545480215 0.0 0.0 1.987846675914698e-16 12.126181464747567 10.135485938842825 -73.61819072586228 50.17868672693957 -5.760923947180066e-15 2.6973074726336304e-15 0.0 0.0 -2.3854160110976376e-15 0.0 0.0 3.975693351829396e-16 -0.6826494173075556 -15.361636435543872 -4.451764580936343 -0.8473735168119686 24.255369155481084 0.48078626903473715 0.0 0.0 0.0
